<svg width="648" height="52" viewBox="0 0 648 52" fill="none" xmlns="http://www.w3.org/2000/svg">
<rect y="42" width="648" height="10" rx="5" fill="#89BAB4" fill-opacity="0.3"/>
<rect y="42" width="583.19" height="10" rx="5" fill="#2FC7A1"/>
<rect width="45.55" height="24" transform="translate(537.64)" fill="#2FC7A1"/>
<path d="M549.187 6.5C549.934 6.5 550.554 6.63067 551.049 6.892C551.553 7.15333 551.95 7.51267 552.239 7.97C552.538 8.418 552.748 8.936 552.869 9.524C553 10.112 553.065 10.728 553.065 11.372V12.044C553.065 13.6587 552.664 14.9047 551.861 15.782C551.058 16.65 549.896 17.084 548.375 17.084C548.011 17.084 547.703 17.0747 547.451 17.056C547.199 17.0373 546.924 17.0093 546.625 16.972V15.824C546.933 15.8613 547.218 15.8893 547.479 15.908C547.74 15.9267 548.058 15.936 548.431 15.936C549.28 15.936 549.952 15.7773 550.447 15.46C550.942 15.1427 551.296 14.69 551.511 14.102C551.726 13.5047 551.833 12.786 551.833 11.946V11.316L552.169 10.07C552.16 10.8073 552.015 11.4187 551.735 11.904C551.464 12.3893 551.086 12.7533 550.601 12.996C550.125 13.2387 549.574 13.36 548.949 13.36C548.221 13.36 547.605 13.2153 547.101 12.926C546.597 12.6273 546.214 12.2213 545.953 11.708C545.701 11.1947 545.575 10.6113 545.575 9.958C545.575 9.29533 545.71 8.70267 545.981 8.18C546.252 7.65733 546.653 7.24667 547.185 6.948C547.726 6.64933 548.394 6.5 549.187 6.5ZM549.187 7.676C548.674 7.676 548.244 7.774 547.899 7.97C547.554 8.166 547.292 8.43667 547.115 8.782C546.947 9.118 546.863 9.51 546.863 9.958C546.863 10.406 546.947 10.8027 547.115 11.148C547.283 11.4933 547.53 11.764 547.857 11.96C548.193 12.1467 548.604 12.24 549.089 12.24C549.565 12.24 549.99 12.1513 550.363 11.974C550.746 11.7967 551.044 11.54 551.259 11.204C551.474 10.8587 551.581 10.4387 551.581 9.944C551.581 9.53333 551.497 9.15533 551.329 8.81C551.161 8.46467 550.9 8.18933 550.545 7.984C550.19 7.77867 549.738 7.676 549.187 7.676ZM559.283 17.252C558.518 17.252 557.865 17.1213 557.323 16.86C556.791 16.5893 556.357 16.2253 556.021 15.768C555.695 15.3107 555.457 14.7833 555.307 14.186C555.158 13.5793 555.083 12.94 555.083 12.268V11.512C555.083 10.5693 555.228 9.72 555.517 8.964C555.816 8.208 556.273 7.61067 556.889 7.172C557.515 6.724 558.313 6.5 559.283 6.5C560.254 6.5 561.047 6.724 561.663 7.172C562.279 7.61067 562.732 8.208 563.021 8.964C563.32 9.72 563.469 10.5693 563.469 11.512V12.268C563.469 12.94 563.395 13.5793 563.245 14.186C563.096 14.7833 562.853 15.3107 562.517 15.768C562.191 16.2253 561.761 16.5893 561.229 16.86C560.697 17.1213 560.049 17.252 559.283 17.252ZM559.283 16.02C560.254 16.02 560.963 15.6933 561.411 15.04C561.869 14.3773 562.097 13.332 562.097 11.904C562.097 10.4107 561.864 9.342 561.397 8.698C560.94 8.054 560.235 7.732 559.283 7.732C558.322 7.732 557.608 8.054 557.141 8.698C556.684 9.342 556.455 10.4013 556.455 11.876C556.455 13.3133 556.684 14.3633 557.141 15.026C557.599 15.6887 558.313 16.02 559.283 16.02ZM567.994 17L571.858 6.78H572.922L569.058 17H567.994ZM567.238 12.268C566.706 12.268 566.272 12.1467 565.936 11.904C565.609 11.6613 565.366 11.3393 565.208 10.938C565.058 10.5367 564.984 10.1027 564.984 9.636V9.272C564.984 8.768 565.063 8.32 565.222 7.928C565.38 7.52667 565.628 7.214 565.964 6.99C566.3 6.75667 566.724 6.64 567.238 6.64C567.76 6.64 568.185 6.75667 568.512 6.99C568.848 7.214 569.095 7.52667 569.254 7.928C569.412 8.32 569.492 8.768 569.492 9.272V9.636C569.492 10.1027 569.412 10.5367 569.254 10.938C569.104 11.3393 568.866 11.6613 568.54 11.904C568.213 12.1467 567.779 12.268 567.238 12.268ZM567.238 11.344C567.667 11.344 567.984 11.19 568.19 10.882C568.404 10.5647 568.512 10.0933 568.512 9.468C568.512 8.80533 568.404 8.32467 568.19 8.026C567.975 7.718 567.658 7.564 567.238 7.564C566.818 7.564 566.5 7.718 566.286 8.026C566.071 8.32467 565.964 8.80067 565.964 9.454C565.964 10.0793 566.066 10.5507 566.272 10.868C566.486 11.1853 566.808 11.344 567.238 11.344ZM573.622 17.14C573.09 17.14 572.656 17.0187 572.32 16.776C571.993 16.5333 571.75 16.2113 571.592 15.81C571.442 15.4087 571.368 14.9747 571.368 14.508V14.144C571.368 13.64 571.447 13.192 571.606 12.8C571.764 12.3987 572.012 12.086 572.348 11.862C572.684 11.6287 573.108 11.512 573.622 11.512C574.144 11.512 574.569 11.6287 574.896 11.862C575.232 12.086 575.479 12.3987 575.638 12.8C575.796 13.192 575.876 13.64 575.876 14.144V14.508C575.876 14.9747 575.796 15.4087 575.638 15.81C575.488 16.2113 575.25 16.5333 574.924 16.776C574.597 17.0187 574.163 17.14 573.622 17.14ZM573.622 16.216C574.051 16.216 574.368 16.062 574.574 15.754C574.788 15.4367 574.896 14.9653 574.896 14.34C574.896 13.6773 574.788 13.1967 574.574 12.898C574.359 12.59 574.042 12.436 573.622 12.436C573.202 12.436 572.884 12.59 572.67 12.898C572.455 13.1967 572.348 13.6727 572.348 14.326C572.348 14.9513 572.45 15.4227 572.656 15.74C572.87 16.0573 573.192 16.216 573.622 16.216Z" fill="white"/>
<rect x="553.34" y="24" width="9.9985" height="9.9985" transform="rotate(-45 553.34 24)" fill="#2FC7A1"/>
</svg>
