<svg width="648" height="52" viewBox="0 0 648 52" fill="none" xmlns="http://www.w3.org/2000/svg">
<rect y="42" width="648" height="10" rx="5" fill="#89BAB4" fill-opacity="0.3"/>
<rect y="42" width="602.63" height="10" rx="5" fill="#2FC7A1"/>
<rect width="43.73" height="24" transform="translate(558.89)" fill="#2FC7A1"/>
<path d="M570.429 6.5C571.175 6.5 571.796 6.63067 572.291 6.892C572.795 7.15333 573.191 7.51267 573.481 7.97C573.779 8.418 573.989 8.936 574.111 9.524C574.241 10.112 574.307 10.728 574.307 11.372V12.044C574.307 13.6587 573.905 14.9047 573.103 15.782C572.3 16.65 571.138 17.084 569.617 17.084C569.253 17.084 568.945 17.0747 568.693 17.056C568.441 17.0373 568.165 17.0093 567.867 16.972V15.824C568.175 15.8613 568.459 15.8893 568.721 15.908C568.982 15.9267 569.299 15.936 569.673 15.936C570.522 15.936 571.194 15.7773 571.689 15.46C572.183 15.1427 572.538 14.69 572.753 14.102C572.967 13.5047 573.075 12.786 573.075 11.946V11.316L573.411 10.07C573.401 10.8073 573.257 11.4187 572.977 11.904C572.706 12.3893 572.328 12.7533 571.843 12.996C571.367 13.2387 570.816 13.36 570.191 13.36C569.463 13.36 568.847 13.2153 568.343 12.926C567.839 12.6273 567.456 12.2213 567.195 11.708C566.943 11.1947 566.817 10.6113 566.817 9.958C566.817 9.29533 566.952 8.70267 567.223 8.18C567.493 7.65733 567.895 7.24667 568.427 6.948C568.968 6.64933 569.635 6.5 570.429 6.5ZM570.429 7.676C569.915 7.676 569.486 7.774 569.141 7.97C568.795 8.166 568.534 8.43667 568.357 8.782C568.189 9.118 568.105 9.51 568.105 9.958C568.105 10.406 568.189 10.8027 568.357 11.148C568.525 11.4933 568.772 11.764 569.099 11.96C569.435 12.1467 569.845 12.24 570.331 12.24C570.807 12.24 571.231 12.1513 571.605 11.974C571.987 11.7967 572.286 11.54 572.501 11.204C572.715 10.8587 572.823 10.4387 572.823 9.944C572.823 9.53333 572.739 9.15533 572.571 8.81C572.403 8.46467 572.141 8.18933 571.787 7.984C571.432 7.77867 570.979 7.676 570.429 7.676ZM579.503 17.252C578.738 17.252 578.089 17.1027 577.557 16.804C577.025 16.5053 576.619 16.1087 576.339 15.614C576.068 15.1193 575.933 14.5827 575.933 14.004H577.249C577.249 14.6387 577.45 15.1427 577.851 15.516C578.262 15.8893 578.812 16.076 579.503 16.076C579.96 16.076 580.357 15.992 580.693 15.824C581.029 15.656 581.29 15.418 581.477 15.11C581.664 14.7927 581.757 14.424 581.757 14.004C581.757 13.3693 581.552 12.856 581.141 12.464C580.74 12.072 580.198 11.876 579.517 11.876C579.228 11.876 578.976 11.9133 578.761 11.988C578.556 12.0533 578.374 12.1373 578.215 12.24L577.543 11.036L581.449 8.18L581.309 7.928H576.339V6.78H582.569V8.642L579.335 10.994L578.355 11.036C578.514 10.98 578.686 10.9333 578.873 10.896C579.069 10.8587 579.298 10.84 579.559 10.84C580.306 10.84 580.94 10.98 581.463 11.26C581.986 11.54 582.382 11.9133 582.653 12.38C582.933 12.8467 583.073 13.3553 583.073 13.906V14.102C583.073 14.6433 582.933 15.1567 582.653 15.642C582.382 16.118 581.981 16.5053 581.449 16.804C580.926 17.1027 580.278 17.252 579.503 17.252ZM587.431 17L591.295 6.78H592.359L588.495 17H587.431ZM586.675 12.268C586.143 12.268 585.709 12.1467 585.373 11.904C585.046 11.6613 584.803 11.3393 584.645 10.938C584.495 10.5367 584.421 10.1027 584.421 9.636V9.272C584.421 8.768 584.5 8.32 584.659 7.928C584.817 7.52667 585.065 7.214 585.401 6.99C585.737 6.75667 586.161 6.64 586.675 6.64C587.197 6.64 587.622 6.75667 587.949 6.99C588.285 7.214 588.532 7.52667 588.691 7.928C588.849 8.32 588.929 8.768 588.929 9.272V9.636C588.929 10.1027 588.849 10.5367 588.691 10.938C588.541 11.3393 588.303 11.6613 587.977 11.904C587.65 12.1467 587.216 12.268 586.675 12.268ZM586.675 11.344C587.104 11.344 587.421 11.19 587.627 10.882C587.841 10.5647 587.949 10.0933 587.949 9.468C587.949 8.80533 587.841 8.32467 587.627 8.026C587.412 7.718 587.095 7.564 586.675 7.564C586.255 7.564 585.937 7.718 585.723 8.026C585.508 8.32467 585.401 8.80067 585.401 9.454C585.401 10.0793 585.503 10.5507 585.709 10.868C585.923 11.1853 586.245 11.344 586.675 11.344ZM593.059 17.14C592.527 17.14 592.093 17.0187 591.757 16.776C591.43 16.5333 591.187 16.2113 591.029 15.81C590.879 15.4087 590.805 14.9747 590.805 14.508V14.144C590.805 13.64 590.884 13.192 591.043 12.8C591.201 12.3987 591.449 12.086 591.785 11.862C592.121 11.6287 592.545 11.512 593.059 11.512C593.581 11.512 594.006 11.6287 594.333 11.862C594.669 12.086 594.916 12.3987 595.075 12.8C595.233 13.192 595.313 13.64 595.313 14.144V14.508C595.313 14.9747 595.233 15.4087 595.075 15.81C594.925 16.2113 594.687 16.5333 594.361 16.776C594.034 17.0187 593.6 17.14 593.059 17.14ZM593.059 16.216C593.488 16.216 593.805 16.062 594.011 15.754C594.225 15.4367 594.333 14.9653 594.333 14.34C594.333 13.6773 594.225 13.1967 594.011 12.898C593.796 12.59 593.479 12.436 593.059 12.436C592.639 12.436 592.321 12.59 592.107 12.898C591.892 13.1967 591.785 13.6727 591.785 14.326C591.785 14.9513 591.887 15.4227 592.093 15.74C592.307 16.0573 592.629 16.216 593.059 16.216Z" fill="white"/>
<rect x="573.68" y="24" width="9.9985" height="9.9985" transform="rotate(-45 573.68 24)" fill="#2FC7A1"/>
</svg>
