<svg width="648" height="52" viewBox="0 0 648 52" fill="none" xmlns="http://www.w3.org/2000/svg">
<rect y="42" width="648" height="10" rx="5" fill="#89BAB4" fill-opacity="0.3"/>
<rect y="42" width="486" height="10" rx="5" fill="#2FC7A1"/>
<rect width="42.67" height="24" transform="translate(443.33)" fill="#2FC7A1"/>
<path d="M452.539 17L456.865 8.054L456.781 7.928H451.195V6.78H458.055V8.404L453.939 17H452.539ZM451.195 9.552V6.78H452.315V9.552H451.195ZM462.986 17.252C462.202 17.252 461.54 17.0933 460.998 16.776C460.457 16.4493 460.046 16.0247 459.766 15.502C459.486 14.9793 459.346 14.424 459.346 13.836H460.662C460.662 14.2653 460.756 14.648 460.942 14.984C461.138 15.32 461.409 15.586 461.754 15.782C462.1 15.978 462.51 16.076 462.986 16.076C463.453 16.076 463.859 15.9827 464.204 15.796C464.559 15.6 464.834 15.334 465.03 14.998C465.226 14.6527 465.324 14.2653 465.324 13.836C465.324 13.4067 465.226 13.0193 465.03 12.674C464.844 12.3287 464.573 12.0533 464.218 11.848C463.873 11.6427 463.462 11.54 462.986 11.54C462.641 11.54 462.291 11.6007 461.936 11.722C461.582 11.834 461.297 11.9973 461.082 12.212H459.85L460.368 6.78H465.73V7.928H461.152L461.488 7.466L461.096 11.428L460.732 11.302C461.003 11.0313 461.33 10.8167 461.712 10.658C462.104 10.4993 462.548 10.42 463.042 10.42C463.826 10.42 464.484 10.5833 465.016 10.91C465.548 11.2273 465.95 11.6427 466.22 12.156C466.5 12.66 466.64 13.1873 466.64 13.738V13.934C466.64 14.4847 466.5 15.0167 466.22 15.53C465.94 16.034 465.525 16.4493 464.974 16.776C464.433 17.0933 463.77 17.252 462.986 17.252ZM470.799 17L474.663 6.78H475.727L471.863 17H470.799ZM470.043 12.268C469.511 12.268 469.077 12.1467 468.741 11.904C468.414 11.6613 468.172 11.3393 468.013 10.938C467.864 10.5367 467.789 10.1027 467.789 9.636V9.272C467.789 8.768 467.868 8.32 468.027 7.928C468.186 7.52667 468.433 7.214 468.769 6.99C469.105 6.75667 469.53 6.64 470.043 6.64C470.566 6.64 470.99 6.75667 471.317 6.99C471.653 7.214 471.9 7.52667 472.059 7.928C472.218 8.32 472.297 8.768 472.297 9.272V9.636C472.297 10.1027 472.218 10.5367 472.059 10.938C471.91 11.3393 471.672 11.6613 471.345 11.904C471.018 12.1467 470.584 12.268 470.043 12.268ZM470.043 11.344C470.472 11.344 470.79 11.19 470.995 10.882C471.21 10.5647 471.317 10.0933 471.317 9.468C471.317 8.80533 471.21 8.32467 470.995 8.026C470.78 7.718 470.463 7.564 470.043 7.564C469.623 7.564 469.306 7.718 469.091 8.026C468.876 8.32467 468.769 8.80067 468.769 9.454C468.769 10.0793 468.872 10.5507 469.077 10.868C469.292 11.1853 469.614 11.344 470.043 11.344ZM476.427 17.14C475.895 17.14 475.461 17.0187 475.125 16.776C474.798 16.5333 474.556 16.2113 474.397 15.81C474.248 15.4087 474.173 14.9747 474.173 14.508V14.144C474.173 13.64 474.252 13.192 474.411 12.8C474.57 12.3987 474.817 12.086 475.153 11.862C475.489 11.6287 475.914 11.512 476.427 11.512C476.95 11.512 477.374 11.6287 477.701 11.862C478.037 12.086 478.284 12.3987 478.443 12.8C478.602 13.192 478.681 13.64 478.681 14.144V14.508C478.681 14.9747 478.602 15.4087 478.443 15.81C478.294 16.2113 478.056 16.5333 477.729 16.776C477.402 17.0187 476.968 17.14 476.427 17.14ZM476.427 16.216C476.856 16.216 477.174 16.062 477.379 15.754C477.594 15.4367 477.701 14.9653 477.701 14.34C477.701 13.6773 477.594 13.1967 477.379 12.898C477.164 12.59 476.847 12.436 476.427 12.436C476.007 12.436 475.69 12.59 475.475 12.898C475.26 13.1967 475.153 13.6727 475.153 14.326C475.153 14.9513 475.256 15.4227 475.461 15.74C475.676 16.0573 475.998 16.216 476.427 16.216Z" fill="white"/>
<rect x="457.59" y="24" width="9.9985" height="9.9985" transform="rotate(-45 457.59 24)" fill="#2FC7A1"/>
</svg>
