<svg width="648" height="52" viewBox="0 0 648 52" fill="none" xmlns="http://www.w3.org/2000/svg">
<rect y="42" width="648" height="10" rx="5" fill="#89BAB4" fill-opacity="0.3"/>
<rect y="42" width="408.23" height="10" rx="5" fill="#2FC7A1"/>
<rect width="43.73" height="24" transform="translate(364.5)" fill="#2FC7A1"/>
<path d="M376.579 17.28C375.833 17.28 375.207 17.1493 374.703 16.888C374.209 16.6267 373.812 16.272 373.513 15.824C373.224 15.3667 373.014 14.844 372.883 14.256C372.762 13.668 372.701 13.052 372.701 12.408V11.736C372.701 10.1213 373.103 8.88 373.905 8.012C374.708 7.13467 375.87 6.696 377.391 6.696C377.755 6.696 378.063 6.70533 378.315 6.724C378.567 6.74267 378.843 6.77067 379.141 6.808V7.956C378.833 7.91867 378.549 7.89067 378.287 7.872C378.026 7.85333 377.709 7.844 377.335 7.844C376.486 7.844 375.814 8.00267 375.319 8.32C374.825 8.63733 374.47 9.09467 374.255 9.692C374.041 10.28 373.933 10.994 373.933 11.834V12.464L373.597 13.71C373.607 12.9727 373.747 12.3613 374.017 11.876C374.297 11.3907 374.675 11.0267 375.151 10.784C375.637 10.5413 376.192 10.42 376.817 10.42C377.545 10.42 378.161 10.5693 378.665 10.868C379.169 11.1573 379.547 11.5587 379.799 12.072C380.061 12.5853 380.191 13.1687 380.191 13.822C380.191 14.4847 380.056 15.0773 379.785 15.6C379.515 16.1227 379.109 16.5333 378.567 16.832C378.035 17.1307 377.373 17.28 376.579 17.28ZM376.579 16.104C377.093 16.104 377.522 16.006 377.867 15.81C378.213 15.614 378.469 15.348 378.637 15.012C378.815 14.6667 378.903 14.27 378.903 13.822C378.903 13.374 378.819 12.9773 378.651 12.632C378.483 12.2867 378.231 12.0207 377.895 11.834C377.569 11.638 377.163 11.54 376.677 11.54C376.201 11.54 375.772 11.6287 375.389 11.806C375.016 11.9833 374.722 12.2447 374.507 12.59C374.293 12.926 374.185 13.3413 374.185 13.836C374.185 14.2467 374.269 14.6247 374.437 14.97C374.605 15.3153 374.867 15.5907 375.221 15.796C375.576 16.0013 376.029 16.104 376.579 16.104ZM385.108 17.252C384.343 17.252 383.694 17.1027 383.162 16.804C382.63 16.5053 382.224 16.1087 381.944 15.614C381.673 15.1193 381.538 14.5827 381.538 14.004H382.854C382.854 14.6387 383.055 15.1427 383.456 15.516C383.867 15.8893 384.417 16.076 385.108 16.076C385.565 16.076 385.962 15.992 386.298 15.824C386.634 15.656 386.895 15.418 387.082 15.11C387.269 14.7927 387.362 14.424 387.362 14.004C387.362 13.3693 387.157 12.856 386.746 12.464C386.345 12.072 385.803 11.876 385.122 11.876C384.833 11.876 384.581 11.9133 384.366 11.988C384.161 12.0533 383.979 12.1373 383.82 12.24L383.148 11.036L387.054 8.18L386.914 7.928H381.944V6.78H388.174V8.642L384.94 10.994L383.96 11.036C384.119 10.98 384.291 10.9333 384.478 10.896C384.674 10.8587 384.903 10.84 385.164 10.84C385.911 10.84 386.545 10.98 387.068 11.26C387.591 11.54 387.987 11.9133 388.258 12.38C388.538 12.8467 388.678 13.3553 388.678 13.906V14.102C388.678 14.6433 388.538 15.1567 388.258 15.642C387.987 16.118 387.586 16.5053 387.054 16.804C386.531 17.1027 385.883 17.252 385.108 17.252ZM393.036 17L396.9 6.78H397.964L394.1 17H393.036ZM392.28 12.268C391.748 12.268 391.314 12.1467 390.978 11.904C390.651 11.6613 390.408 11.3393 390.25 10.938C390.1 10.5367 390.026 10.1027 390.026 9.636V9.272C390.026 8.768 390.105 8.32 390.264 7.928C390.422 7.52667 390.67 7.214 391.006 6.99C391.342 6.75667 391.766 6.64 392.28 6.64C392.802 6.64 393.227 6.75667 393.554 6.99C393.89 7.214 394.137 7.52667 394.296 7.928C394.454 8.32 394.534 8.768 394.534 9.272V9.636C394.534 10.1027 394.454 10.5367 394.296 10.938C394.146 11.3393 393.908 11.6613 393.582 11.904C393.255 12.1467 392.821 12.268 392.28 12.268ZM392.28 11.344C392.709 11.344 393.026 11.19 393.232 10.882C393.446 10.5647 393.554 10.0933 393.554 9.468C393.554 8.80533 393.446 8.32467 393.232 8.026C393.017 7.718 392.7 7.564 392.28 7.564C391.86 7.564 391.542 7.718 391.328 8.026C391.113 8.32467 391.006 8.80067 391.006 9.454C391.006 10.0793 391.108 10.5507 391.314 10.868C391.528 11.1853 391.85 11.344 392.28 11.344ZM398.664 17.14C398.132 17.14 397.698 17.0187 397.362 16.776C397.035 16.5333 396.792 16.2113 396.634 15.81C396.484 15.4087 396.41 14.9747 396.41 14.508V14.144C396.41 13.64 396.489 13.192 396.648 12.8C396.806 12.3987 397.054 12.086 397.39 11.862C397.726 11.6287 398.15 11.512 398.664 11.512C399.186 11.512 399.611 11.6287 399.938 11.862C400.274 12.086 400.521 12.3987 400.68 12.8C400.838 13.192 400.918 13.64 400.918 14.144V14.508C400.918 14.9747 400.838 15.4087 400.68 15.81C400.53 16.2113 400.292 16.5333 399.966 16.776C399.639 17.0187 399.205 17.14 398.664 17.14ZM398.664 16.216C399.093 16.216 399.41 16.062 399.616 15.754C399.83 15.4367 399.938 14.9653 399.938 14.34C399.938 13.6773 399.83 13.1967 399.616 12.898C399.401 12.59 399.084 12.436 398.664 12.436C398.244 12.436 397.926 12.59 397.712 12.898C397.497 13.1967 397.39 13.6727 397.39 14.326C397.39 14.9513 397.492 15.4227 397.698 15.74C397.912 16.0573 398.234 16.216 398.664 16.216Z" fill="white"/>
<rect x="379.29" y="24" width="9.9985" height="9.9985" transform="rotate(-45 379.29 24)" fill="#2FC7A1"/>
</svg>
