<svg width="49" height="48" viewBox="0 0 49 48" fill="none" xmlns="http://www.w3.org/2000/svg">
<path d="M44.97 41.9201H44.33C44.4367 39.7867 44.17 37.9201 43.53 36.3201V33.2801C43.53 31.8934 43.1567 30.6667 42.41 29.6001L38.09 22.8801C37.5567 22.0267 36.89 21.3334 36.09 20.8001C35.29 20.2667 34.41 19.9467 33.45 19.8401L27.05 18.8801V17.9201C27.9033 17.7067 28.5967 17.2534 29.13 16.5601C29.6633 15.8667 29.93 15.0934 29.93 14.2401V5.28006C29.93 4.21339 29.5833 3.30672 28.89 2.56006C28.1967 1.81339 27.3167 1.44006 26.25 1.44006H15.69C15.4767 1.44006 15.3167 1.52006 15.21 1.68006C15.1033 1.84006 15.05 2.02673 15.05 2.24006V5.28006C15.05 6.13339 15.3167 6.90673 15.85 7.60006C16.3833 8.29339 17.0767 8.74673 17.93 8.96006V14.2401C18.0367 15.0934 18.3567 15.8667 18.89 16.5601C19.4233 17.2534 20.1167 17.7067 20.97 17.9201V18.8801L19.05 19.2001C18.9433 18.5601 18.6233 18.1067 18.09 17.8401C17.5567 17.5734 17.0233 17.4934 16.49 17.6001L15.69 17.7601C15.1567 17.8667 14.7033 18.1334 14.33 18.5601C13.9567 18.9867 13.77 19.4667 13.77 20.0001C12.17 20.4267 10.89 21.3867 9.93 22.8801L5.61 29.6001C4.86333 30.6667 4.49 31.8934 4.49 33.2801V36.3201C3.85 37.9201 3.58333 39.8401 3.69 42.0801H3.05C2.83667 42.0801 2.65 42.1334 2.49 42.2401C2.33 42.3467 2.25 42.5067 2.25 42.7201V45.7601C2.25 45.9734 2.33 46.1601 2.49 46.3201C2.65 46.4801 2.83667 46.5601 3.05 46.5601H44.97C45.1833 46.5601 45.37 46.4801 45.53 46.3201C45.69 46.1601 45.77 45.9734 45.77 45.7601V42.7201C45.77 42.5067 45.69 42.3201 45.53 42.1601C45.37 42.0001 45.1833 41.9201 44.97 41.9201ZM25.45 41.9201C27.5833 39.3601 30.7833 37.6001 35.05 36.6401C37.1833 36.2134 39.37 36.0001 41.61 36.0001C42.0367 36.6401 42.3567 37.3867 42.57 38.2401C40.5433 38.3467 38.57 38.6134 36.65 39.0401C36.33 39.1467 36.1167 39.3334 36.01 39.6001C35.9033 39.8667 35.9567 40.1067 36.17 40.3201C36.3833 40.5334 36.65 40.5867 36.97 40.4801C38.89 40.0534 40.81 39.7867 42.73 39.6801C42.8367 40.4267 42.89 41.1734 42.89 41.9201H25.45ZM36.81 23.6801L41.13 30.4001C41.77 31.2534 42.0367 32.2134 41.93 33.2801V34.5601C40.4367 34.4534 38.9433 34.5067 37.45 34.7201V32.9601C37.45 32.8534 37.45 32.7467 37.45 32.6401L33.61 27.3601C33.3967 27.1467 33.1567 27.0401 32.89 27.0401C32.6233 27.0401 32.4367 27.1734 32.33 27.4401C32.2233 27.7067 32.2233 27.9467 32.33 28.1601L36.01 33.2801V34.8801L34.89 35.2001C29.9833 36.2667 26.3567 38.3467 24.01 41.4401C22.9433 39.8401 21.5033 38.5067 19.69 37.4401H20.97C21.61 37.4401 22.1433 37.2267 22.57 36.8001C22.9967 36.3734 23.21 35.8401 23.21 35.2001V32.3201C23.21 31.7867 23.0767 31.3067 22.81 30.8801C22.5433 30.4534 22.1433 30.1867 21.61 30.0801L19.37 20.6401L20.97 20.3201C21.0767 20.9601 21.3433 21.4934 21.77 21.9201C22.1967 22.3467 22.6767 22.5601 23.21 22.5601H24.81C25.3433 22.5601 25.8233 22.3467 26.25 21.9201C26.6767 21.4934 26.9433 20.9601 27.05 20.3201L33.29 21.2801C34.7833 21.6001 35.9567 22.4001 36.81 23.6801ZM20.01 29.9201H17.77L16.17 23.5201L18.41 23.0401L20.01 29.9201ZM17.29 31.5201H20.97C21.1833 31.5201 21.37 31.6001 21.53 31.7601C21.69 31.9201 21.77 32.1067 21.77 32.3201V35.2001C21.77 35.4134 21.69 35.6001 21.53 35.7601C21.37 35.9201 21.1833 36.0001 20.97 36.0001H17.29V31.5201ZM25.45 17.9201V20.3201C25.45 20.5334 25.3967 20.6934 25.29 20.8001C25.1833 20.9067 25.0233 20.9601 24.81 20.9601H23.21C22.9967 20.9601 22.8367 20.9067 22.73 20.8001C22.6233 20.6934 22.57 20.5334 22.57 20.3201V17.9201H25.45ZM16.49 5.28006V3.04006H26.25C26.89 3.04006 27.4233 3.25339 27.85 3.68006C28.2767 4.10673 28.49 4.64006 28.49 5.28006V7.52006H18.73C18.09 7.52006 17.5567 7.30672 17.13 6.88006C16.7033 6.45339 16.49 5.92006 16.49 5.28006ZM19.53 14.2401V8.96006H28.49V14.2401C28.49 14.8801 28.2767 15.4134 27.85 15.8401C27.4233 16.2667 26.89 16.4801 26.25 16.4801H21.77C21.13 16.4801 20.5967 16.2667 20.17 15.8401C19.7433 15.4134 19.53 14.8801 19.53 14.2401ZM15.53 19.5201C15.6367 19.3067 15.7967 19.2001 16.01 19.2001L16.81 19.0401C16.9167 18.9334 17.0767 18.9601 17.29 19.1201C17.5033 19.2801 17.61 19.4134 17.61 19.5201L18.09 21.6001L15.85 22.0801L15.37 20.1601C15.2633 19.9467 15.3167 19.7334 15.53 19.5201ZM6.89 30.4001L11.21 23.6801C11.9567 22.6134 12.9167 21.8667 14.09 21.4401L16.33 29.9201H13.45L14.09 28.9601C14.3033 28.6401 14.33 28.3734 14.17 28.1601C14.01 27.9467 13.7967 27.8134 13.53 27.7601C13.2633 27.7067 13.0233 27.8401 12.81 28.1601L11.37 30.4001C11.2633 30.6134 11.2633 30.8534 11.37 31.1201C11.4767 31.3867 11.69 31.5201 12.01 31.5201H15.69V35.8401C15.05 35.5201 14.3033 35.3067 13.45 35.2001C10.9967 34.6667 8.54333 34.4534 6.09 34.5601V33.2801C5.98333 32.2134 6.25 31.2534 6.89 30.4001ZM5.29 39.6801C7.21 39.7867 9.13 40.0534 11.05 40.4801C11.37 40.5867 11.6367 40.5334 11.85 40.3201C12.0633 40.1067 12.1167 39.8667 12.01 39.6001C11.9033 39.3334 11.69 39.1467 11.37 39.0401C9.45 38.6134 7.47667 38.3467 5.45 38.2401C5.66333 37.3867 5.98333 36.6401 6.41 36.0001C8.65 36.0001 10.89 36.2134 13.13 36.6401C17.5033 37.6001 20.65 39.3601 22.57 41.9201H5.13C5.13 41.1734 5.18333 40.4267 5.29 39.6801ZM44.33 44.9601H3.69V43.5201H44.33V44.9601Z" fill="white"/>
</svg>
