<svg width="49" height="48" viewBox="0 0 49 48" fill="none" xmlns="http://www.w3.org/2000/svg">
<g clip-path="url(#clip0_1_1037)">
<path d="M44.17 19.36H12.17L42.89 10.4C43.21 10.4 43.4234 10.2933 43.53 10.08C43.6367 9.86667 43.6367 9.6 43.53 9.28L41.93 3.84C41.61 2.66667 40.9967 1.73333 40.09 1.04C39.1833 0.346668 38.1433 0 36.97 0C36.4367 0 35.9567 0.0533333 35.53 0.16L6.73002 8.64C5.34335 8.96 4.30335 9.76 3.61002 11.04C2.91668 12.32 2.73002 13.6533 3.05002 15.04L4.65002 20.48V42.72C4.65002 44.2133 5.15668 45.4667 6.17002 46.48C7.18335 47.4933 8.43668 48 9.93002 48H21.13C21.45 48 21.69 47.92 21.85 47.76C22.01 47.6 22.09 47.3867 22.09 47.12C22.09 46.8533 22.01 46.6133 21.85 46.4C21.69 46.1867 21.45 46.08 21.13 46.08H9.93002C8.97002 46.08 8.17002 45.76 7.53002 45.12C6.89002 44.48 6.57002 43.68 6.57002 42.72V30.08H43.21V42.72C43.21 43.68 42.89 44.48 42.25 45.12C41.61 45.76 40.8633 46.08 40.01 46.08H28.65C28.4367 46.08 28.2234 46.1867 28.01 46.4C27.7967 46.6133 27.69 46.8533 27.69 47.12C27.69 47.3867 27.7967 47.6 28.01 47.76C28.2234 47.92 28.4367 48 28.65 48H40.01C41.3967 48 42.5967 47.4933 43.61 46.48C44.6233 45.4667 45.13 44.2133 45.13 42.72V20.32C45.13 20.1067 45.05 19.8933 44.89 19.68C44.73 19.4667 44.49 19.36 44.17 19.36ZM27.69 28.16L31.69 21.28H36.81L32.81 28.16H27.69ZM20.33 28.16L24.33 21.28H29.45L25.45 28.16H20.33ZM12.97 28.16L16.97 21.28H22.09L18.25 28.16H12.97ZM16.49 16L9.77002 9.6L14.89 8.16L21.61 14.72L16.65 16.16L16.49 16ZM28.97 4.16L35.69 10.56L30.73 12L23.85 5.44L28.97 4V4.16ZM21.93 6.24L28.65 12.64L23.69 14.08L16.81 7.52L21.93 6.08V6.24ZM36.01 2.08C36.33 1.97334 36.65 1.92 36.97 1.92C37.7167 1.92 38.3834 2.13334 38.97 2.56C39.5567 2.98667 39.9567 3.57333 40.17 4.32L41.61 8.96L37.77 10.08L31.05 3.52L36.01 2.08ZM5.29002 12C5.71668 11.1467 6.35668 10.6133 7.21002 10.4L7.69002 10.24L14.57 16.8L6.25002 19.2L4.97002 14.56C4.65002 13.6 4.75668 12.7467 5.29002 12ZM6.57002 21.28H14.89L10.89 28.16H6.57002V21.28ZM35.05 28.16L39.05 21.28H43.21V28.16H35.05ZM31.37 37.92C31.37 37.6 31.21 37.3333 30.89 37.12L22.73 32.48C22.41 32.2667 22.09 32.24 21.77 32.4C21.45 32.56 21.29 32.8533 21.29 33.28V42.72C21.29 43.04 21.3967 43.28 21.61 43.44C21.8233 43.6 22.01 43.68 22.17 43.68C22.33 43.68 22.5167 43.6267 22.73 43.52L30.89 38.72C31.21 38.6133 31.37 38.3467 31.37 37.92ZM23.21 41.12V34.88L28.65 37.92L23.21 41.12ZM24.97 46.08C24.65 46.08 24.41 46.1867 24.25 46.4C24.09 46.6133 24.01 46.8533 24.01 47.12C24.01 47.3867 24.09 47.6 24.25 47.76C24.41 47.92 24.6234 48 24.89 48C25.1567 48 25.3967 47.92 25.61 47.76C25.8233 47.6 25.93 47.3867 25.93 47.12C25.93 46.8533 25.8233 46.6133 25.61 46.4C25.3967 46.1867 25.1833 46.08 24.97 46.08Z" fill="white"/>
</g>
<defs>
<clipPath id="clip0_1_1037">
<rect width="48.02" height="48" fill="white" transform="matrix(1 0 0 -1 0 48)"/>
</clipPath>
</defs>
</svg>
