<svg width="49" height="48" viewBox="0 0 49 48" fill="none" xmlns="http://www.w3.org/2000/svg">
<g clip-path="url(#clip0_1_1023)">
<path d="M11.85 45.28H16.01C16.7567 45.28 17.2633 44.96 17.53 44.32C17.7967 43.68 17.7967 43.04 17.53 42.4C17.2633 41.76 16.7567 41.44 16.01 41.44H11.85C10.9967 41.44 10.4367 41.76 10.17 42.4C9.90334 43.04 9.90334 43.68 10.17 44.32C10.4367 44.96 10.9967 45.28 11.85 45.28ZM11.85 42.88H16.01C16.2233 42.88 16.33 43.04 16.33 43.36C16.33 43.68 16.2233 43.84 16.01 43.84H11.85C11.53 43.84 11.37 43.68 11.37 43.36C11.37 43.04 11.53 42.88 11.85 42.88ZM16.97 24.16L12.33 28.8L10.73 27.2C10.5167 26.9867 10.3033 26.9067 10.09 26.96C9.87668 27.0133 9.71668 27.1733 9.61001 27.44C9.50334 27.7067 9.55668 27.9467 9.77001 28.16L11.85 30.24C12.17 30.56 12.49 30.56 12.81 30.24L17.93 25.12C18.1433 24.9067 18.1967 24.6933 18.09 24.48C17.9833 24.2667 17.8233 24.1067 17.61 24C17.3967 23.8933 17.1833 23.9467 16.97 24.16ZM47.53 31.04C47.21 30.6133 46.9967 30.08 46.89 29.44C46.1433 26.56 45.0767 23.7867 43.69 21.12L41.45 16.8C41.0233 15.9467 40.3833 15.4133 39.53 15.2C38.6767 14.9867 37.8767 15.0933 37.13 15.52C36.3833 15.9467 35.9033 16.5867 35.69 17.44C34.8367 17.12 33.9833 17.1733 33.13 17.6C32.2767 18.0267 31.7433 18.6667 31.53 19.52C30.7833 19.3067 30.0633 19.3333 29.37 19.6C28.6767 19.8667 28.1167 20.32 27.69 20.96V2.72C27.69 1.97334 27.4233 1.33334 26.89 0.799999C26.3567 0.266666 25.7167 0 24.97 0H8.65001C8.33001 0 8.11668 0.106667 8.01001 0.32C7.90334 0.533333 7.90334 0.773335 8.01001 1.04C8.11668 1.30667 8.33001 1.44 8.65001 1.44H24.97C25.3967 1.44 25.7167 1.57333 25.93 1.84C26.1433 2.10667 26.25 2.4 26.25 2.72V4.8H1.45001V2.72C1.45001 2.4 1.58334 2.10667 1.85001 1.84C2.11668 1.57333 2.41001 1.44 2.73001 1.44H4.65001C4.97001 1.44 5.18334 1.30667 5.29001 1.04C5.39668 0.773335 5.39668 0.533333 5.29001 0.32C5.18334 0.106667 4.97001 0 4.65001 0H2.73001C1.98334 0 1.34334 0.266666 0.81001 0.799999C0.276676 1.33334 0.0100098 1.97334 0.0100098 2.72V45.28C0.0100098 46.0267 0.276676 46.6667 0.81001 47.2C1.34334 47.7333 1.98334 48 2.73001 48H24.97C25.7167 48 26.3567 47.7333 26.89 47.2C27.4233 46.6667 27.69 46.0267 27.69 45.28V36.64L30.25 37.76C30.89 38.08 31.37 38.56 31.69 39.2C32.2233 40.3733 33.1033 41.1733 34.33 41.6C35.5567 42.0267 36.7567 41.92 37.93 41.28L42.09 39.04C42.3033 38.9333 42.41 38.7467 42.41 38.48C42.41 38.2133 42.3033 38 42.09 37.84C41.8767 37.68 41.6633 37.7067 41.45 37.92L37.29 40C36.4367 40.4267 35.5833 40.5067 34.73 40.24C33.8767 39.9733 33.2367 39.4133 32.81 38.56C32.3833 37.7067 31.7433 37.0667 30.89 36.64L20.17 31.36C19.53 31.04 19.21 30.56 19.21 29.92C19.21 29.28 19.45 28.7467 19.93 28.32C20.41 27.8933 20.97 27.84 21.61 28.16L25.61 30.08C25.8233 30.2933 26.0633 30.2667 26.33 30C26.5967 29.7333 26.6767 29.4933 26.57 29.28L19.85 16.32C19.4233 15.68 19.3967 15.0667 19.77 14.48C20.1433 13.8933 20.65 13.5733 21.29 13.52C21.93 13.4667 22.41 13.8133 22.73 14.56L28.81 25.92C28.9167 26.24 29.1033 26.4 29.37 26.4C29.6367 26.4 29.85 26.2933 30.01 26.08C30.17 25.8667 30.1433 25.6 29.93 25.28L28.81 23.04C28.5967 22.5067 28.65 22.0267 28.97 21.6C29.29 21.1733 29.7167 20.9067 30.25 20.8C30.7833 20.6933 31.21 20.8533 31.53 21.28L32.97 23.84C33.0767 24.0533 33.2633 24.16 33.53 24.16C33.7967 24.16 34.01 24.0533 34.17 23.84C34.33 23.6267 34.3567 23.4133 34.25 23.2L32.81 20.48C32.81 19.7333 33.1567 19.1733 33.85 18.8C34.5433 18.4267 35.1567 18.5067 35.69 19.04L37.13 21.6C37.2367 21.8133 37.4233 21.92 37.69 21.92C37.9567 21.92 38.17 21.8133 38.33 21.6C38.49 21.3867 38.4633 21.1733 38.25 20.96L36.97 18.4C36.8633 17.76 37.0233 17.28 37.45 16.96C37.8767 16.64 38.3833 16.5067 38.97 16.56C39.5567 16.6133 39.9567 16.9067 40.17 17.44L42.57 21.76C43.85 24.32 44.81 26.9867 45.45 29.76C45.6633 30.4 45.9567 31.0933 46.33 31.84C46.7033 32.5867 46.7567 33.36 46.49 34.16C46.2233 34.96 45.7167 35.5733 44.97 36C44.65 36.1067 44.49 36.2933 44.49 36.56C44.49 36.8267 44.5967 37.04 44.81 37.2C45.0233 37.36 45.29 37.3867 45.61 37.28C46.6767 36.7467 47.3967 35.8667 47.77 34.64C48.1433 33.4133 48.0633 32.2133 47.53 31.04ZM26.25 45.28C26.25 45.6 26.1433 45.8933 25.93 46.16C25.7167 46.4267 25.3967 46.56 24.97 46.56H2.73001C2.41001 46.56 2.11668 46.4267 1.85001 46.16C1.58334 45.8933 1.45001 45.6 1.45001 45.28V40.16H26.25V45.28ZM18.09 28.32C17.8767 28.8533 17.7967 29.3867 17.85 29.92C17.9033 30.4533 18.0367 30.9867 18.25 31.52C17.0767 32.8 15.6367 33.44 13.93 33.44C12.2233 33.44 10.7567 32.8267 9.53001 31.6C8.30334 30.3733 7.69001 28.9067 7.69001 27.2C7.69001 25.4933 8.30334 24.0267 9.53001 22.8C10.7567 21.5733 12.1967 20.96 13.85 20.96C15.5033 20.96 16.9167 21.52 18.09 22.64C19.2633 23.76 19.9033 25.12 20.01 26.72C19.1567 26.9333 18.5167 27.4667 18.09 28.32ZM23.21 12.96C22.89 12.64 22.5167 12.4267 22.09 12.32C21.45 12.1067 20.7833 12.16 20.09 12.48C19.3967 12.8 18.8633 13.28 18.49 13.92C18.1167 14.56 17.9833 15.2533 18.09 16H4.81001C4.59668 16 4.49001 15.9467 4.49001 15.84V10.72C4.49001 10.6133 4.59668 10.56 4.81001 10.56H22.89C23.1033 10.56 23.21 10.6133 23.21 10.72V12.96ZM26.25 18.24L24.65 15.04V10.72C24.65 10.2933 24.49 9.92 24.17 9.6C23.85 9.28 23.4233 9.12 22.89 9.12H4.81001C4.38334 9.12 4.01001 9.28 3.69001 9.6C3.37001 9.92 3.21001 10.2933 3.21001 10.72V15.84C3.21001 16.2667 3.37001 16.64 3.69001 16.96C4.01001 17.28 4.38334 17.44 4.81001 17.44H18.73L24.17 27.84L22.25 26.88C22.0367 26.7733 21.77 26.6667 21.45 26.56C21.2367 24.64 20.41 23.0133 18.97 21.68C17.53 20.3467 15.7967 19.68 13.77 19.68C11.7433 19.68 9.98334 20.4 8.49001 21.84C6.99668 23.28 6.25001 25.0667 6.25001 27.2C6.25001 29.3333 6.99668 31.12 8.49001 32.56C9.98334 34 11.7967 34.72 13.93 34.72C16.0633 34.72 17.8767 33.9733 19.37 32.48C20.33 33.0133 21.8767 33.76 24.01 34.72L26.25 35.84V38.72H1.45001V6.24H26.25V18.24Z" fill="white"/>
</g>
<defs>
<clipPath id="clip0_1_1023">
<rect width="48.02" height="48" fill="white" transform="matrix(1 0 0 -1 0 48)"/>
</clipPath>
</defs>
</svg>
