<svg width="49" height="48" viewBox="0 0 49 48" fill="none" xmlns="http://www.w3.org/2000/svg">
<g clip-path="url(#clip0_1_1009)">
<path d="M20.3298 39.0401C21.1831 39.0401 21.9031 38.7201 22.4898 38.0801C23.0764 37.4401 23.3698 36.6667 23.3698 35.7601C23.3698 34.8534 23.0764 34.1067 22.4898 33.5201C21.9031 32.9334 21.1564 32.6401 20.2498 32.6401C19.3431 32.6401 18.5964 32.9334 18.0098 33.5201C17.4231 34.1067 17.1298 34.8534 17.1298 35.7601C17.1298 36.6667 17.4231 37.4401 18.0098 38.0801C18.5964 38.7201 19.3698 39.0401 20.3298 39.0401ZM20.3298 33.9201C20.7564 33.9201 21.1564 34.1067 21.5298 34.4801C21.9031 34.8534 22.0898 35.2801 22.0898 35.7601C22.0898 36.2401 21.9031 36.6667 21.5298 37.0401C21.1564 37.4134 20.7298 37.6001 20.2498 37.6001C19.7698 37.6001 19.3431 37.4134 18.9698 37.0401C18.5964 36.6667 18.4098 36.2401 18.4098 35.7601C18.4098 35.2801 18.5964 34.8534 18.9698 34.4801C19.3431 34.1067 19.7964 33.9201 20.3298 33.9201ZM14.8898 41.6001V45.9201C14.8898 46.1334 14.9698 46.2934 15.1298 46.4001C15.2898 46.5067 15.4231 46.5601 15.5298 46.5601H24.9698C25.0764 46.5601 25.2098 46.5067 25.3698 46.4001C25.5298 46.2934 25.6098 46.1334 25.6098 45.9201V41.6001C25.6098 40.7467 25.3164 40.0267 24.7298 39.4401C24.1431 38.8534 23.4764 38.6134 22.7298 38.7201C22.4098 38.6134 22.1964 38.6667 22.0898 38.8801C21.9831 39.0934 21.8231 39.2534 21.6098 39.3601C21.0764 39.7867 20.5164 39.9467 19.9298 39.8401C19.3431 39.7334 18.8364 39.4134 18.4098 38.8801C18.3031 38.6667 18.0898 38.6134 17.7698 38.7201C17.0231 38.6134 16.3564 38.8534 15.7698 39.4401C15.1831 40.0267 14.8898 40.7467 14.8898 41.6001ZM16.3298 41.6001C16.3298 41.1734 16.4364 40.8267 16.6498 40.5601C16.8631 40.2934 17.1831 40.1067 17.6098 40.0001C18.2498 40.7467 19.1298 41.1201 20.2498 41.1201C21.3698 41.1201 22.2498 40.7467 22.8898 40.0001C23.3164 40.1067 23.6364 40.2934 23.8498 40.5601C24.0631 40.8267 24.1698 41.1734 24.1698 41.6001V45.2801H16.3298V41.6001ZM31.5298 39.0401C32.3831 39.0401 33.1298 38.7201 33.7698 38.0801C34.4098 37.4401 34.7298 36.6667 34.7298 35.7601C34.7298 34.8534 34.4098 34.1067 33.7698 33.5201C33.1298 32.9334 32.3564 32.6401 31.4498 32.6401C30.5431 32.6401 29.7964 32.9334 29.2098 33.5201C28.6231 34.1067 28.3298 34.8534 28.3298 35.7601C28.3298 36.6667 28.6498 37.4401 29.2898 38.0801C29.9298 38.7201 30.6764 39.0401 31.5298 39.0401ZM31.5298 33.9201C31.9564 33.9201 32.3564 34.1067 32.7298 34.4801C33.1031 34.8534 33.2898 35.2801 33.2898 35.7601C33.2898 36.2401 33.1031 36.6667 32.7298 37.0401C32.3564 37.4134 31.9298 37.6001 31.4498 37.6001C30.9698 37.6001 30.5431 37.4134 30.1698 37.0401C29.7964 36.6667 29.6098 36.2401 29.6098 35.7601C29.6098 35.2801 29.7964 34.8534 30.1698 34.4801C30.5431 34.1067 30.9964 33.9201 31.5298 33.9201ZM26.2498 41.6001V45.9201C26.2498 46.1334 26.3031 46.2934 26.4098 46.4001C26.5164 46.5067 26.6764 46.5601 26.8898 46.5601H36.1698C36.3831 46.5601 36.5431 46.5067 36.6498 46.4001C36.7564 46.2934 36.8098 46.1334 36.8098 45.9201V41.6001C36.8098 40.7467 36.5164 40.0534 35.9298 39.5201C35.3431 38.9867 34.6764 38.7201 33.9298 38.7201C33.7164 38.6134 33.5298 38.6667 33.3698 38.8801C33.2098 39.0934 33.0231 39.2534 32.8098 39.3601C32.2764 39.7867 31.7164 39.9467 31.1298 39.8401C30.5431 39.7334 30.0364 39.4134 29.6098 38.8801C29.5031 38.6667 29.3431 38.6134 29.1298 38.7201C28.2764 38.6134 27.5831 38.8534 27.0498 39.4401C26.5164 40.0267 26.2498 40.7467 26.2498 41.6001ZM27.5298 41.6001C27.5298 41.1734 27.6364 40.8267 27.8498 40.5601C28.0631 40.2934 28.3831 40.1067 28.8098 40.0001C29.4498 40.6401 30.2231 41.0134 31.1298 41.1201C32.0364 41.2267 32.8631 41.0134 33.6098 40.4801L34.2498 40.0001C34.5698 40.1067 34.8631 40.2934 35.1298 40.5601C35.3964 40.8267 35.5298 41.1734 35.5298 41.6001V45.2801H27.5298V41.6001ZM42.7298 39.0401C43.5831 39.0401 44.3298 38.7201 44.9698 38.0801C45.6098 37.4401 45.9298 36.6667 45.9298 35.7601C45.9298 34.8534 45.6098 34.1067 44.9698 33.5201C44.3298 32.9334 43.5831 32.6401 42.7298 32.6401C41.8764 32.6401 41.1298 32.9334 40.4898 33.5201C39.8498 34.1067 39.5298 34.8534 39.5298 35.7601C39.5298 36.6667 39.8498 37.4401 40.4898 38.0801C41.1298 38.7201 41.8764 39.0401 42.7298 39.0401ZM42.7298 33.9201C43.2631 33.9201 43.6898 34.1067 44.0098 34.4801C44.3298 34.8534 44.4898 35.2801 44.4898 35.7601C44.4898 36.2401 44.3298 36.6667 44.0098 37.0401C43.6898 37.4134 43.2631 37.6001 42.7298 37.6001C42.1964 37.6001 41.7698 37.4134 41.4498 37.0401C41.1298 36.6667 40.9698 36.2401 40.9698 35.7601C40.9698 35.2801 41.1298 34.8534 41.4498 34.4801C41.7698 34.1067 42.1964 33.9201 42.7298 33.9201ZM45.1298 38.7201C44.9164 38.6134 44.7298 38.6667 44.5698 38.8801C44.4098 39.0934 44.2231 39.2534 44.0098 39.3601C43.5831 39.7867 43.0498 39.9467 42.4098 39.8401C41.7698 39.7334 41.2364 39.4134 40.8098 38.8801C40.7031 38.6667 40.5431 38.6134 40.3298 38.7201C39.4764 38.7201 38.7564 38.9867 38.1698 39.5201C37.5831 40.0534 37.2898 40.7467 37.2898 41.6001V45.9201C37.2898 46.1334 37.3698 46.2934 37.5298 46.4001C37.6898 46.5067 37.8764 46.5601 38.0898 46.5601H47.3698C47.5831 46.5601 47.7431 46.5067 47.8498 46.4001C47.9564 46.2934 48.0098 46.1334 48.0098 45.9201V41.6001C48.0098 40.7467 47.7164 40.0267 47.1298 39.4401C46.5431 38.8534 45.8764 38.6134 45.1298 38.7201ZM45.4498 40.0001C45.7698 40.1067 46.0364 40.2934 46.2498 40.5601C46.4631 40.8267 46.5698 41.1734 46.5698 41.6001V45.2801H38.7298V41.6001C38.7298 41.1734 38.8364 40.8267 39.0498 40.5601C39.2631 40.2934 39.5831 40.1067 40.0098 40.0001C40.7564 40.7467 41.6631 41.1201 42.7298 41.1201C43.7964 41.1201 44.7031 40.7467 45.4498 40.0001ZM8.48977 10.5601C9.55643 10.5601 10.4631 10.1601 11.2098 9.36006C11.9564 8.56006 12.3298 7.62672 12.3298 6.56006V5.28006C12.3298 4.21339 11.9564 3.30672 11.2098 2.56006C10.4631 1.81339 9.55643 1.44006 8.48977 1.44006C7.4231 1.44006 6.51643 1.81339 5.76977 2.56006C5.0231 3.30672 4.64977 4.21339 4.64977 5.28006V6.56006C4.64977 7.62672 5.0231 8.56006 5.76977 9.36006C6.51643 10.1601 7.4231 10.5601 8.48977 10.5601ZM5.92977 5.28006C5.92977 4.64006 6.19643 4.08006 6.72977 3.60006C7.2631 3.12006 7.87643 2.88006 8.56977 2.88006C9.2631 2.88006 9.84977 3.12006 10.3298 3.60006C10.8098 4.08006 11.0498 4.64006 11.0498 5.28006V6.56006C11.0498 7.30672 10.8098 7.92006 10.3298 8.40006C9.84977 8.88006 9.2631 9.12006 8.56977 9.12006C7.87643 9.12006 7.2631 8.88006 6.72977 8.40006C6.19643 7.92006 5.92977 7.30672 5.92977 6.56006V5.28006ZM0.00976562 24.6401C0.00976562 25.3867 0.249766 25.9734 0.729766 26.4001C1.20977 26.8267 1.76977 27.0401 2.40977 27.0401C2.9431 27.0401 3.36977 26.9334 3.68977 26.7201L4.16977 41.4401C4.16977 41.9734 4.32977 42.4534 4.64977 42.8801C4.96977 43.3067 5.36977 43.6001 5.84977 43.7601C6.32977 43.9201 6.80977 43.9467 7.28977 43.8401C7.76977 43.7334 8.2231 43.4667 8.64977 43.0401C8.96977 43.4667 9.39643 43.7334 9.92977 43.8401C10.4631 43.9467 10.9698 43.9201 11.4498 43.7601C11.9298 43.6001 12.3298 43.3067 12.6498 42.8801C12.9698 42.4534 13.1298 41.9734 13.1298 41.4401L13.6098 26.8801C13.9298 27.0934 14.3031 27.2001 14.7298 27.2001C15.3698 27.2001 15.9298 26.9601 16.4098 26.4801C16.8898 26.0001 17.1298 25.3867 17.1298 24.6401V14.8801C17.2364 13.8134 16.9431 12.8534 16.2498 12.0001C15.5564 11.1467 14.6764 10.6667 13.6098 10.5601H11.5298C11.3164 10.5601 11.1564 10.6134 11.0498 10.7201L8.64977 12.9601L6.24977 10.7201C6.1431 10.6134 5.9831 10.5601 5.76977 10.5601H4.00977C2.9431 10.5601 2.00977 10.9334 1.20977 11.6801C0.409766 12.4267 0.00976562 13.3867 0.00976562 14.5601V14.8801V24.6401ZM10.5698 42.5601C10.2498 42.5601 9.95643 42.4534 9.68976 42.2401C9.4231 42.0267 9.28977 41.7601 9.28977 41.4401V26.8801C9.28977 26.7734 9.23643 26.6401 9.12977 26.4801C9.0231 26.3201 8.8631 26.2401 8.64977 26.2401C8.43643 26.2401 8.27643 26.3201 8.16977 26.4801C8.0631 26.6401 8.00977 26.7734 8.00977 26.8801V41.4401C8.00977 41.7601 7.87643 42.0267 7.60977 42.2401C7.3431 42.4534 7.04977 42.5601 6.72977 42.5601C6.40977 42.5601 6.11643 42.4534 5.84977 42.2401C5.5831 42.0267 5.44977 41.7601 5.44977 41.4401L4.96977 24.4801H12.1698L11.6898 41.4401C11.6898 41.7601 11.5831 42.0267 11.3698 42.2401C11.1564 42.4534 10.8898 42.5601 10.5698 42.5601ZM2.08977 12.6401C2.6231 12.1067 3.2631 11.8401 4.00977 11.8401H5.44977L8.16977 14.4001L11.8498 11.8401H13.2898C14.0364 11.8401 14.6764 12.1601 15.2098 12.8001C15.7431 13.4401 15.9564 14.1334 15.8498 14.8801V24.6401C15.8498 24.9601 15.7431 25.2267 15.5298 25.4401C15.3164 25.6534 15.0498 25.7601 14.7298 25.7601C14.4098 25.7601 14.1431 25.6534 13.9298 25.4401C13.7164 25.2267 13.6098 24.9601 13.6098 24.6401V18.0801C13.6098 17.8667 13.5564 17.7067 13.4498 17.6001C13.3431 17.4934 13.1831 17.4401 12.9698 17.4401C12.7564 17.4401 12.5964 17.4934 12.4898 17.6001C12.3831 17.7067 12.3298 17.8667 12.3298 18.0801V23.2001H4.96977V18.0801C4.96977 17.8667 4.88977 17.7067 4.72977 17.6001C4.56977 17.4934 4.40977 17.4401 4.24977 17.4401C4.08977 17.4401 3.92977 17.4934 3.76977 17.6001C3.60977 17.7067 3.52977 17.8667 3.52977 18.0801V24.6401C3.52977 24.9601 3.4231 25.2267 3.20977 25.4401C2.99643 25.6534 2.72977 25.7601 2.40977 25.7601C2.19643 25.7601 1.9831 25.6534 1.76977 25.4401C1.55643 25.2267 1.44977 24.9601 1.44977 24.6401V14.5601C1.3431 13.8134 1.55643 13.1734 2.08977 12.6401ZM18.5698 7.68006H19.6898V21.7601C19.6898 22.5067 19.9564 23.1467 20.4898 23.6801C21.0231 24.2134 21.6631 24.4801 22.4098 24.4801H31.0498L26.4098 28.6401C26.0898 28.8534 25.9831 29.1201 26.0898 29.4401C26.1964 29.7601 26.3831 29.9201 26.6498 29.9201C26.9164 29.9201 27.1031 29.8667 27.2098 29.7601L32.4898 24.9601L37.7698 29.7601C37.8764 29.8667 38.0364 29.9201 38.2498 29.9201C38.4631 29.9201 38.6231 29.8401 38.7298 29.6801C38.8364 29.5201 38.8898 29.3334 38.8898 29.1201C38.8898 28.9067 38.8364 28.7467 38.7298 28.6401L33.9298 24.4801H42.5698C43.3164 24.4801 43.9564 24.2134 44.4898 23.6801C45.0231 23.1467 45.2898 22.5067 45.2898 21.7601V7.68006H46.4098C46.6231 7.68006 46.7831 7.60006 46.8898 7.44006C46.9964 7.28006 47.0498 7.14672 47.0498 7.04006V2.24006C47.0498 2.02673 46.9964 1.86673 46.8898 1.76006C46.7831 1.65339 46.6231 1.60006 46.4098 1.60006H18.5698C18.4631 1.60006 18.3298 1.65339 18.1698 1.76006C18.0098 1.86673 17.9298 2.02673 17.9298 2.24006V7.04006C17.9298 7.14672 18.0098 7.28006 18.1698 7.44006C18.3298 7.60006 18.4631 7.68006 18.5698 7.68006ZM43.8498 21.7601C43.8498 22.0801 43.7164 22.3734 43.4498 22.6401C43.1831 22.9067 42.8898 23.0401 42.5698 23.0401H22.4098C22.0898 23.0401 21.7964 22.9067 21.5298 22.6401C21.2631 22.3734 21.1298 22.0801 21.1298 21.7601V7.68006H43.8498V21.7601ZM19.3698 3.04006H45.7698V6.24006H19.3698V3.04006ZM24.1698 13.1201H36.8098C37.0231 13.1201 37.2098 13.0401 37.3698 12.8801C37.5298 12.7201 37.6098 12.5601 37.6098 12.4001C37.6098 12.2401 37.5298 12.0801 37.3698 11.9201C37.2098 11.7601 37.0231 11.6801 36.8098 11.6801H24.1698C24.0631 11.6801 23.9298 11.7601 23.7698 11.9201C23.6098 12.0801 23.5298 12.2401 23.5298 12.4001C23.5298 12.5601 23.6098 12.7201 23.7698 12.8801C23.9298 13.0401 24.0631 13.1201 24.1698 13.1201ZM24.1698 15.8401H40.8098C41.0231 15.8401 41.2098 15.7601 41.3698 15.6001C41.5298 15.4401 41.6098 15.2801 41.6098 15.1201C41.6098 14.9601 41.5298 14.8001 41.3698 14.6401C41.2098 14.4801 41.0231 14.4001 40.8098 14.4001H24.1698C24.0631 14.4001 23.9298 14.4801 23.7698 14.6401C23.6098 14.8001 23.5298 14.9601 23.5298 15.1201C23.5298 15.2801 23.6098 15.4401 23.7698 15.6001C23.9298 15.7601 24.0631 15.8401 24.1698 15.8401ZM24.1698 18.4001H40.8098C41.0231 18.4001 41.2098 18.3467 41.3698 18.2401C41.5298 18.1334 41.6098 17.9734 41.6098 17.7601C41.6098 17.5467 41.5298 17.3867 41.3698 17.2801C41.2098 17.1734 41.0231 17.1201 40.8098 17.1201H24.1698C24.0631 17.1201 23.9298 17.1734 23.7698 17.2801C23.6098 17.3867 23.5298 17.5467 23.5298 17.7601C23.5298 17.9734 23.6098 18.1334 23.7698 18.2401C23.9298 18.3467 24.0631 18.4001 24.1698 18.4001Z" fill="white"/>
</g>
<defs>
<clipPath id="clip0_1_1009">
<rect width="48.02" height="48" fill="white" transform="matrix(1 0 0 -1 0 48)"/>
</clipPath>
</defs>
</svg>
