<svg width="18" height="16" viewBox="0 0 18 16" fill="none" xmlns="http://www.w3.org/2000/svg">
<path d="M16.3711 9.33276C16.2884 9.7255 16.0507 9.92188 15.658 9.92188H6.57324L6.75928 10.9141H15.0999C15.3272 10.9141 15.5133 11.0071 15.658 11.1931C15.8027 11.3792 15.8543 11.5859 15.813 11.8132L15.627 12.5884C16.2884 12.8984 16.6191 13.4152 16.6191 14.1387C16.6191 14.6141 16.4434 15.0172 16.092 15.3479C15.7613 15.6993 15.3582 15.875 14.8828 15.875C14.4074 15.875 13.994 15.6993 13.6426 15.3479C13.3118 15.0172 13.1465 14.6141 13.1465 14.1387C13.1465 13.6426 13.3222 13.2292 13.6736 12.8984H7.16235C7.51375 13.2292 7.68945 13.6426 7.68945 14.1387C7.68945 14.6141 7.51375 15.0172 7.16235 15.3479C6.83162 15.6993 6.42855 15.875 5.95312 15.875C5.4777 15.875 5.06429 15.6993 4.71289 15.3479C4.38216 15.0172 4.2168 14.6141 4.2168 14.1387C4.2168 13.4772 4.50618 12.9708 5.08496 12.6194L2.91455 1.98438H0.744141C0.537435 1.98438 0.361735 1.91203 0.217041 1.76733C0.072347 1.62264 0 1.44694 0 1.24023V0.744141C0 0.537435 0.072347 0.361735 0.217041 0.217041C0.361735 0.072347 0.537435 0 0.744141 0H3.93774C4.10311 0 4.2478 0.0620117 4.37183 0.186035C4.51652 0.289388 4.60954 0.423747 4.65088 0.589111L4.92993 1.98438H17.1152C17.3633 1.98438 17.5597 2.07739 17.7043 2.26343C17.849 2.44946 17.8904 2.65617 17.8284 2.88354L16.3711 9.33276Z" fill="#4D5756"/>
<a href="https://www.figma.com/design/FQMCtNuVqsHCfAIsCKE35l/CourseHub---University--Online-Courses--School---Education-Figma-Template--Community-?node-id=6-605">
<rect fill="black" fill-opacity="0" y="0.0625" width="17.8284" height="15.875"/>
</a>
</svg>
