<svg width="21" height="21" viewBox="0 0 21 21" fill="none" xmlns="http://www.w3.org/2000/svg">
<path d="M16.8 14.9339L20.895 19.0079C20.965 19.0779 21 19.1689 21 19.2809C21 19.3929 20.965 19.4839 20.895 19.5539L19.551 20.8979C19.481 20.9679 19.39 21.0029 19.278 21.0029C19.166 21.0029 19.075 20.9679 19.005 20.8979L18.627 20.4989L18.438 20.3309C18.34 20.2469 18.284 20.1979 18.27 20.1839L14.952 16.8659C14.882 16.7819 14.784 16.7399 14.658 16.7399C14.546 16.7259 14.448 16.7539 14.364 16.8239C13.608 17.3559 12.789 17.7689 11.907 18.0629C10.997 18.3569 10.066 18.5039 9.114 18.5039C7.462 18.5039 5.929 18.0909 4.515 17.2649C3.143 16.4529 2.051 15.3609 1.239 13.9889C0.413 12.5749 0 11.0419 0 9.38988C0 7.73788 0.413 6.20488 1.239 4.79088C2.051 3.41888 3.143 2.32688 4.515 1.51488C5.929 0.688879 7.462 0.275879 9.114 0.275879C10.766 0.275879 12.292 0.688879 13.692 1.51488C15.064 2.32688 16.156 3.41888 16.968 4.79088C17.794 6.20488 18.207 7.73788 18.207 9.38988C18.207 11.1819 17.724 12.8269 16.758 14.3249C16.702 14.4229 16.674 14.5279 16.674 14.6399C16.688 14.7519 16.73 14.8499 16.8 14.9339ZM14.616 13.6319C15.078 13.0299 15.435 12.3719 15.687 11.6579C15.939 10.9299 16.065 10.1739 16.065 9.38988C16.065 8.12988 15.75 6.96088 15.12 5.88288C14.504 4.81888 13.671 3.97888 12.621 3.36288C11.543 2.73288 10.374 2.41788 9.114 2.41788C7.854 2.41788 6.685 2.73288 5.607 3.36288C4.543 3.97888 3.703 4.81888 3.087 5.88288C2.457 6.96088 2.142 8.12988 2.142 9.38988C2.142 10.6499 2.457 11.8189 3.087 12.8969C3.703 13.9609 4.543 14.8009 5.607 15.4169C6.685 16.0469 7.854 16.3619 9.114 16.3619C9.954 16.3619 10.759 16.2219 11.529 15.9419C12.299 15.6479 12.992 15.2349 13.608 14.7029C13.986 14.3809 14.322 14.0239 14.616 13.6319Z" fill="#17254E"/>
</svg>
