<svg width="104" height="104" viewBox="0 0 104 104" fill="none" xmlns="http://www.w3.org/2000/svg">
<rect width="80" height="80" rx="40" fill="white"/>
<rect x="40" y="40" width="64" height="64" rx="32" fill="white" fill-opacity="0.47"/>
<rect x="28.5" y="28.5" width="71" height="71" rx="35.5" stroke="white" stroke-opacity="0.47"/>
<path d="M50.4836 37.3984C51.1086 37.763 51.4211 38.2969 51.4211 39C51.4211 39.7031 51.1086 40.237 50.4836 40.6016L36.7336 48.7266C36.1346 49.0911 35.5096 49.0911 34.8586 48.7266C34.2336 48.388 33.9211 47.8542 33.9211 47.125V30.875C33.9211 30.0938 34.2466 29.5469 34.8977 29.2344C35.5747 28.8958 36.1867 28.9089 36.7336 29.2734L50.4836 37.3984Z" fill="#FE543D"/>
<a href="https://www.figma.com/design/Nx4sNsAeWJfmVVOXuDSmxJ?node-id=2-828">
<rect fill="black" fill-opacity="0" x="0.171094" width="17.4609" height="20"/>
</a>
</svg>
